<mxfile host="app.diagrams.net" modified="2023-07-23T02:33:36.849Z" agent="Mozilla/5.0 (Windows NT 10.0; Win64; x64) AppleWebKit/537.36 (KHTML, like Gecko) Chrome/110.0.0.0 Safari/537.36 Edg/110.0.1587.63" etag="HEzQQXgvJYCmtAWhpD9l" version="21.6.2" type="github">
  <diagram name="第 1 页" id="Iika1I-dIFPFL2W3E__L">
    <mxGraphModel dx="1468" dy="869" grid="1" gridSize="10" guides="1" tooltips="1" connect="1" arrows="1" fold="1" page="1" pageScale="1" pageWidth="827" pageHeight="1169" math="0" shadow="0">
      <root>
        <mxCell id="0" />
        <mxCell id="1" parent="0" />
        <mxCell id="U0yMsau7YJ4cQJC-mhkW-1" value="&lt;b&gt;&lt;font style=&quot;font-size: 22px;&quot;&gt;MVC&lt;/font&gt;&lt;/b&gt;" style="text;html=1;align=center;verticalAlign=middle;resizable=0;points=[];autosize=1;strokeColor=none;fillColor=none;" vertex="1" parent="1">
          <mxGeometry x="30" y="315" width="70" height="40" as="geometry" />
        </mxCell>
        <mxCell id="U0yMsau7YJ4cQJC-mhkW-2" value="" style="line;strokeWidth=2;direction=south;html=1;" vertex="1" parent="1">
          <mxGeometry x="90" y="170" width="10" height="160" as="geometry" />
        </mxCell>
        <mxCell id="U0yMsau7YJ4cQJC-mhkW-3" value="" style="line;strokeWidth=2;direction=south;html=1;" vertex="1" parent="1">
          <mxGeometry x="90" y="340" width="10" height="160" as="geometry" />
        </mxCell>
      </root>
    </mxGraphModel>
  </diagram>
</mxfile>
